<svg width="896" height="288" viewBox="0 0 896 288" fill="none" xmlns="http://www.w3.org/2000/svg">
<g clip-path="url(#clip0_13_2)">
<rect width="896" height="288" fill="white"/>
<g clip-path="url(#clip1_13_2)">
<mask id="mask0_13_2" style="mask-type:luminance" maskUnits="userSpaceOnUse" x="0" y="0" width="896" height="288">
<path d="M0 32C0 14.3269 14.3269 0 32 0H864C881.673 0 896 14.3269 896 32V288H0V32Z" fill="white"/>
</mask>
<g mask="url(#mask0_13_2)">
<path d="M896 0H0V288H896V0Z" fill="url(#paint0_linear_13_2)"/>
</g>
<path d="M32.5001 0V288M64.5001 0V288M96.5001 0V288M128.5 0V288M160.5 0V288M192.5 0V288M224.5 0V288M256.5 0V288M288.5 0V288M320.5 0V288M352.5 0V288M384.5 0V288M416.5 0V288M448.5 0V288M480.5 0V288M512.5 0V288M544.5 0V288M576.5 0V288M608.5 0V288M640.5 0V288M672.5 0V288M704.5 0V288M736.5 0V288M768.5 0V288M800.5 0V288M832.5 0V288M864.5 0V288M0 31.5H896M0 63.5H896M0 95.5H896M0 127.5H896M0 159.5H896M0 191.5H896M0 223.5H896M0 255.5H896" stroke="white" stroke-opacity="0.04" stroke-dasharray="5 5"/>
<circle cx="382.5" cy="170.5" r="3.5" fill="#94A3B8"/>
<circle cx="476.5" cy="170.5" r="3.5" fill="#94A3B8"/>
</g>
<path d="M294.952 171.474V177H293.296V164.112H300.82V165.696H294.952V169.926H300.244V171.474H294.952ZM303.717 177H302.061V168.18H303.645V169.62H303.717C303.885 169.152 304.227 168.756 304.743 168.432C305.271 168.096 305.787 167.928 306.291 167.928C306.771 167.928 307.179 168 307.515 168.144L307.011 169.746C306.807 169.662 306.483 169.62 306.039 169.62C305.415 169.62 304.869 169.872 304.401 170.376C303.945 170.88 303.717 171.468 303.717 172.14V177ZM312.015 177.288C310.719 177.288 309.651 176.844 308.811 175.956C307.971 175.068 307.551 173.946 307.551 172.59C307.551 171.246 307.959 170.13 308.775 169.242C309.591 168.342 310.635 167.892 311.907 167.892C313.215 167.892 314.253 168.318 315.021 169.17C315.801 170.01 316.191 171.192 316.191 172.716L316.173 172.896H309.243C309.267 173.76 309.555 174.456 310.107 174.984C310.659 175.512 311.319 175.776 312.087 175.776C313.143 175.776 313.971 175.248 314.571 174.192L316.047 174.912C315.651 175.656 315.099 176.238 314.391 176.658C313.695 177.078 312.903 177.288 312.015 177.288ZM309.369 171.528H314.427C314.379 170.916 314.127 170.412 313.671 170.016C313.227 169.608 312.627 169.404 311.871 169.404C311.247 169.404 310.707 169.596 310.251 169.98C309.807 170.364 309.513 170.88 309.369 171.528ZM321.753 177.288C320.457 177.288 319.389 176.844 318.549 175.956C317.709 175.068 317.289 173.946 317.289 172.59C317.289 171.246 317.697 170.13 318.513 169.242C319.329 168.342 320.373 167.892 321.645 167.892C322.953 167.892 323.991 168.318 324.759 169.17C325.539 170.01 325.929 171.192 325.929 172.716L325.911 172.896H318.981C319.005 173.76 319.293 174.456 319.845 174.984C320.397 175.512 321.057 175.776 321.825 175.776C322.881 175.776 323.709 175.248 324.309 174.192L325.785 174.912C325.389 175.656 324.837 176.238 324.129 176.658C323.433 177.078 322.641 177.288 321.753 177.288ZM319.107 171.528H324.165C324.117 170.916 323.865 170.412 323.409 170.016C322.965 169.608 322.365 169.404 321.609 169.404C320.985 169.404 320.445 169.596 319.989 169.98C319.545 170.364 319.251 170.88 319.107 171.528ZM329.1 164.112V177H327.444V164.112H329.1ZM332.235 174.3C332.235 174.732 332.415 175.092 332.775 175.38C333.147 175.668 333.579 175.812 334.071 175.812C334.767 175.812 335.385 175.554 335.925 175.038C336.477 174.522 336.753 173.916 336.753 173.22C336.237 172.812 335.517 172.608 334.593 172.608C333.921 172.608 333.357 172.77 332.901 173.094C332.457 173.418 332.235 173.82 332.235 174.3ZM334.377 167.892C335.601 167.892 336.567 168.222 337.275 168.882C337.983 169.53 338.337 170.424 338.337 171.564V177H336.753V175.776H336.681C335.997 176.784 335.085 177.288 333.945 177.288C332.973 177.288 332.157 177 331.497 176.424C330.849 175.848 330.525 175.128 330.525 174.264C330.525 173.352 330.867 172.626 331.551 172.086C332.247 171.546 333.171 171.276 334.323 171.276C335.307 171.276 336.117 171.456 336.753 171.816V171.438C336.753 170.862 336.525 170.376 336.069 169.98C335.613 169.572 335.079 169.368 334.467 169.368C333.543 169.368 332.811 169.758 332.271 170.538L330.813 169.62C331.617 168.468 332.805 167.892 334.377 167.892ZM340.205 168.18H341.789V169.404H341.861C342.113 168.972 342.497 168.612 343.013 168.324C343.541 168.036 344.087 167.892 344.651 167.892C345.731 167.892 346.559 168.204 347.135 168.828C347.723 169.44 348.017 170.316 348.017 171.456V177H346.361V171.564C346.325 170.124 345.599 169.404 344.183 169.404C343.523 169.404 342.971 169.674 342.527 170.214C342.083 170.742 341.861 171.378 341.861 172.122V177H340.205V168.18ZM353.993 177.288C352.685 177.288 351.599 176.844 350.735 175.956C349.883 175.044 349.457 173.922 349.457 172.59C349.457 171.234 349.883 170.112 350.735 169.224C351.599 168.336 352.685 167.892 353.993 167.892C354.893 167.892 355.679 168.12 356.351 168.576C357.023 169.02 357.527 169.638 357.863 170.43L356.351 171.06C355.883 169.956 355.061 169.404 353.885 169.404C353.129 169.404 352.475 169.71 351.923 170.322C351.383 170.934 351.113 171.69 351.113 172.59C351.113 173.49 351.383 174.246 351.923 174.858C352.475 175.47 353.129 175.776 353.885 175.776C355.097 175.776 355.949 175.224 356.441 174.12L357.917 174.75C357.593 175.542 357.083 176.166 356.387 176.622C355.703 177.066 354.905 177.288 353.993 177.288ZM363.238 177.288C361.942 177.288 360.874 176.844 360.034 175.956C359.194 175.068 358.774 173.946 358.774 172.59C358.774 171.246 359.182 170.13 359.998 169.242C360.814 168.342 361.858 167.892 363.13 167.892C364.438 167.892 365.476 168.318 366.244 169.17C367.024 170.01 367.414 171.192 367.414 172.716L367.396 172.896H360.466C360.49 173.76 360.778 174.456 361.33 174.984C361.882 175.512 362.542 175.776 363.31 175.776C364.366 175.776 365.194 175.248 365.794 174.192L367.27 174.912C366.874 175.656 366.322 176.238 365.614 176.658C364.918 177.078 364.126 177.288 363.238 177.288ZM360.592 171.528H365.65C365.602 170.916 365.35 170.412 364.894 170.016C364.45 169.608 363.85 169.404 363.094 169.404C362.47 169.404 361.93 169.596 361.474 169.98C361.03 170.364 360.736 170.88 360.592 171.528ZM370.584 177H368.928V168.18H370.512V169.62H370.584C370.752 169.152 371.094 168.756 371.61 168.432C372.138 168.096 372.654 167.928 373.158 167.928C373.638 167.928 374.046 168 374.382 168.144L373.878 169.746C373.674 169.662 373.35 169.62 372.906 169.62C372.282 169.62 371.736 169.872 371.268 170.376C370.812 170.88 370.584 171.468 370.584 172.14V177ZM391.575 177V164.112H395.517C397.485 164.112 399.063 164.706 400.251 165.894C401.451 167.082 402.051 168.636 402.051 170.556C402.051 172.488 401.451 174.048 400.251 175.236C399.063 176.412 397.485 177 395.517 177H391.575ZM393.231 165.696V175.416H395.517C397.017 175.416 398.199 174.99 399.063 174.138C399.927 173.274 400.359 172.08 400.359 170.556C400.359 169.044 399.927 167.856 399.063 166.992C398.199 166.128 397.017 165.696 395.517 165.696H393.231ZM407.429 177.288C406.133 177.288 405.065 176.844 404.225 175.956C403.385 175.068 402.965 173.946 402.965 172.59C402.965 171.246 403.373 170.13 404.189 169.242C405.005 168.342 406.049 167.892 407.321 167.892C408.629 167.892 409.667 168.318 410.435 169.17C411.215 170.01 411.605 171.192 411.605 172.716L411.587 172.896H404.657C404.681 173.76 404.969 174.456 405.521 174.984C406.073 175.512 406.733 175.776 407.501 175.776C408.557 175.776 409.385 175.248 409.985 174.192L411.461 174.912C411.065 175.656 410.513 176.238 409.805 176.658C409.109 177.078 408.317 177.288 407.429 177.288ZM404.783 171.528H409.841C409.793 170.916 409.541 170.412 409.085 170.016C408.641 169.608 408.041 169.404 407.285 169.404C406.661 169.404 406.121 169.596 405.665 169.98C405.221 170.364 404.927 170.88 404.783 171.528ZM417.228 177H415.572L412.008 168.18H413.808L416.4 175.02H416.436L419.064 168.18H420.828L417.228 177ZM425.605 177.288C424.309 177.288 423.241 176.844 422.401 175.956C421.561 175.068 421.141 173.946 421.141 172.59C421.141 171.246 421.549 170.13 422.365 169.242C423.181 168.342 424.225 167.892 425.497 167.892C426.805 167.892 427.843 168.318 428.611 169.17C429.391 170.01 429.781 171.192 429.781 172.716L429.763 172.896H422.833C422.857 173.76 423.145 174.456 423.697 174.984C424.249 175.512 424.909 175.776 425.677 175.776C426.733 175.776 427.561 175.248 428.161 174.192L429.637 174.912C429.241 175.656 428.689 176.238 427.981 176.658C427.285 177.078 426.493 177.288 425.605 177.288ZM422.959 171.528H428.017C427.969 170.916 427.717 170.412 427.261 170.016C426.817 169.608 426.217 169.404 425.461 169.404C424.837 169.404 424.297 169.596 423.841 169.98C423.397 170.364 423.103 170.88 422.959 171.528ZM432.951 164.112V177H431.295V164.112H432.951ZM434.377 172.59C434.377 171.234 434.803 170.112 435.655 169.224C436.519 168.336 437.605 167.892 438.913 167.892C440.221 167.892 441.301 168.336 442.153 169.224C443.017 170.112 443.449 171.234 443.449 172.59C443.449 173.958 443.017 175.08 442.153 175.956C441.301 176.844 440.221 177.288 438.913 177.288C437.605 177.288 436.519 176.844 435.655 175.956C434.803 175.068 434.377 173.946 434.377 172.59ZM436.033 172.59C436.033 173.538 436.309 174.306 436.861 174.894C437.413 175.482 438.097 175.776 438.913 175.776C439.729 175.776 440.413 175.482 440.965 174.894C441.517 174.306 441.793 173.538 441.793 172.59C441.793 171.654 441.517 170.892 440.965 170.304C440.401 169.704 439.717 169.404 438.913 169.404C438.109 169.404 437.425 169.704 436.861 170.304C436.309 170.892 436.033 171.654 436.033 172.59ZM449.185 175.776C449.977 175.776 450.643 175.476 451.183 174.876C451.723 174.288 451.993 173.526 451.993 172.59C451.993 171.666 451.723 170.904 451.183 170.304C450.643 169.704 449.977 169.404 449.185 169.404C448.381 169.404 447.709 169.704 447.169 170.304C446.641 170.904 446.377 171.666 446.377 172.59C446.377 173.526 446.641 174.294 447.169 174.894C447.709 175.482 448.381 175.776 449.185 175.776ZM449.455 177.288C448.807 177.288 448.213 177.15 447.673 176.874C447.145 176.598 446.737 176.232 446.449 175.776H446.377L446.449 177V180.888H444.793V168.18H446.377V169.404H446.449C446.737 168.948 447.145 168.582 447.673 168.306C448.213 168.03 448.807 167.892 449.455 167.892C450.619 167.892 451.603 168.348 452.407 169.26C453.235 170.184 453.649 171.294 453.649 172.59C453.649 173.898 453.235 175.008 452.407 175.92C451.603 176.832 450.619 177.288 449.455 177.288ZM459.126 177.288C457.83 177.288 456.762 176.844 455.922 175.956C455.082 175.068 454.662 173.946 454.662 172.59C454.662 171.246 455.07 170.13 455.886 169.242C456.702 168.342 457.746 167.892 459.018 167.892C460.326 167.892 461.364 168.318 462.132 169.17C462.912 170.01 463.302 171.192 463.302 172.716L463.284 172.896H456.354C456.378 173.76 456.666 174.456 457.218 174.984C457.77 175.512 458.43 175.776 459.198 175.776C460.254 175.776 461.082 175.248 461.682 174.192L463.158 174.912C462.762 175.656 462.21 176.238 461.502 176.658C460.806 177.078 460.014 177.288 459.126 177.288ZM456.48 171.528H461.538C461.49 170.916 461.238 170.412 460.782 170.016C460.338 169.608 459.738 169.404 458.982 169.404C458.358 169.404 457.818 169.596 457.362 169.98C456.918 170.364 456.624 170.88 456.48 171.528ZM466.473 177H464.817V168.18H466.401V169.62H466.473C466.641 169.152 466.983 168.756 467.499 168.432C468.027 168.096 468.543 167.928 469.047 167.928C469.527 167.928 469.935 168 470.271 168.144L469.767 169.746C469.563 169.662 469.239 169.62 468.795 169.62C468.171 169.62 467.625 169.872 467.157 170.376C466.701 170.88 466.473 171.468 466.473 172.14V177ZM487.639 177.288C486.211 177.288 485.059 176.82 484.183 175.884C483.307 174.96 482.869 173.736 482.869 172.212V164.112H484.525V172.284C484.525 173.34 484.801 174.174 485.353 174.786C485.905 175.398 486.667 175.704 487.639 175.704C488.611 175.704 489.373 175.398 489.925 174.786C490.477 174.174 490.753 173.34 490.753 172.284V164.112H492.409V172.212C492.409 173.772 491.977 175.008 491.113 175.92C490.249 176.832 489.091 177.288 487.639 177.288ZM496.362 177H494.706V164.112H496.362V177ZM505.044 164.112L499.698 177H498.15L503.496 164.112H505.044ZM511.299 177.288C509.871 177.288 508.719 176.82 507.843 175.884C506.967 174.96 506.529 173.736 506.529 172.212V164.112H508.185V172.284C508.185 173.34 508.461 174.174 509.013 174.786C509.565 175.398 510.327 175.704 511.299 175.704C512.271 175.704 513.033 175.398 513.585 174.786C514.137 174.174 514.413 173.34 514.413 172.284V164.112H516.069V172.212C516.069 173.772 515.637 175.008 514.773 175.92C513.909 176.832 512.751 177.288 511.299 177.288ZM519.302 177H517.358L521.678 170.34L517.61 164.112H519.59L522.722 169.044H522.794L525.926 164.112H527.906L523.838 170.34L528.158 177H526.214L522.794 171.726H522.722L519.302 177ZM533.694 177V164.112H537.636C539.604 164.112 541.182 164.706 542.37 165.894C543.57 167.082 544.17 168.636 544.17 170.556C544.17 172.488 543.57 174.048 542.37 175.236C541.182 176.412 539.604 177 537.636 177H533.694ZM535.35 165.696V175.416H537.636C539.136 175.416 540.318 174.99 541.182 174.138C542.046 173.274 542.478 172.08 542.478 170.556C542.478 169.044 542.046 167.856 541.182 166.992C540.318 166.128 539.136 165.696 537.636 165.696H535.35ZM549.548 177.288C548.252 177.288 547.184 176.844 546.344 175.956C545.504 175.068 545.084 173.946 545.084 172.59C545.084 171.246 545.492 170.13 546.308 169.242C547.124 168.342 548.168 167.892 549.44 167.892C550.748 167.892 551.786 168.318 552.554 169.17C553.334 170.01 553.724 171.192 553.724 172.716L553.706 172.896H546.776C546.8 173.76 547.088 174.456 547.64 174.984C548.192 175.512 548.852 175.776 549.62 175.776C550.676 175.776 551.504 175.248 552.104 174.192L553.58 174.912C553.184 175.656 552.632 176.238 551.924 176.658C551.228 177.078 550.436 177.288 549.548 177.288ZM546.902 171.528H551.96C551.912 170.916 551.66 170.412 551.204 170.016C550.76 169.608 550.16 169.404 549.404 169.404C548.78 169.404 548.24 169.596 547.784 169.98C547.34 170.364 547.046 170.88 546.902 171.528ZM562.076 174.552C562.076 175.32 561.74 175.968 561.068 176.496C560.396 177.024 559.55 177.288 558.53 177.288C557.642 177.288 556.862 177.06 556.19 176.604C555.518 176.136 555.038 175.524 554.75 174.768L556.226 174.138C556.442 174.666 556.754 175.08 557.162 175.38C557.582 175.668 558.038 175.812 558.53 175.812C559.058 175.812 559.496 175.698 559.844 175.47C560.204 175.242 560.384 174.972 560.384 174.66C560.384 174.096 559.952 173.682 559.088 173.418L557.576 173.04C555.86 172.608 555.002 171.78 555.002 170.556C555.002 169.752 555.326 169.11 555.974 168.63C556.634 168.138 557.474 167.892 558.494 167.892C559.274 167.892 559.976 168.078 560.6 168.45C561.236 168.822 561.68 169.32 561.932 169.944L560.456 170.556C560.288 170.184 560.012 169.896 559.628 169.692C559.256 169.476 558.836 169.368 558.368 169.368C557.936 169.368 557.546 169.476 557.198 169.692C556.862 169.908 556.694 170.172 556.694 170.484C556.694 170.988 557.168 171.348 558.116 171.564L559.448 171.906C561.2 172.338 562.076 173.22 562.076 174.552ZM565.572 165.138C565.572 165.462 565.458 165.738 565.23 165.966C565.002 166.194 564.726 166.308 564.402 166.308C564.078 166.308 563.802 166.194 563.574 165.966C563.346 165.738 563.232 165.462 563.232 165.138C563.232 164.814 563.346 164.538 563.574 164.31C563.802 164.082 564.078 163.968 564.402 163.968C564.726 163.968 565.002 164.082 565.23 164.31C565.458 164.538 565.572 164.814 565.572 165.138ZM565.23 168.18V177H563.574V168.18H565.23ZM571.257 175.776C572.073 175.776 572.739 175.482 573.255 174.894C573.795 174.306 574.065 173.538 574.065 172.59C574.065 171.666 573.795 170.904 573.255 170.304C572.727 169.704 572.061 169.404 571.257 169.404C570.465 169.404 569.799 169.704 569.259 170.304C568.719 170.904 568.449 171.666 568.449 172.59C568.449 173.526 568.719 174.288 569.259 174.876C569.799 175.476 570.465 175.776 571.257 175.776ZM571.203 181.176C570.711 181.176 570.249 181.11 569.817 180.978C569.385 180.858 568.989 180.684 568.629 180.456C568.281 180.228 567.981 179.958 567.729 179.646C567.477 179.334 567.285 178.986 567.153 178.602L568.719 177.954C568.899 178.47 569.211 178.884 569.655 179.196C570.099 179.508 570.615 179.664 571.203 179.664C572.103 179.664 572.805 179.394 573.309 178.854C573.813 178.314 574.065 177.57 574.065 176.622V175.776H573.993C573.681 176.244 573.255 176.616 572.715 176.892C572.187 177.156 571.611 177.288 570.987 177.288C569.835 177.288 568.845 176.838 568.017 175.938C567.201 175.014 566.793 173.898 566.793 172.59C566.793 171.282 567.201 170.172 568.017 169.26C568.845 168.348 569.835 167.892 570.987 167.892C571.611 167.892 572.187 168.03 572.715 168.306C573.255 168.57 573.681 168.936 573.993 169.404H574.065V168.18H575.649V176.622C575.649 178.038 575.247 179.148 574.443 179.952C573.627 180.768 572.547 181.176 571.203 181.176ZM577.668 168.18H579.252V169.404H579.324C579.576 168.972 579.96 168.612 580.476 168.324C581.004 168.036 581.55 167.892 582.114 167.892C583.194 167.892 584.022 168.204 584.598 168.828C585.186 169.44 585.48 170.316 585.48 171.456V177H583.824V171.564C583.788 170.124 583.062 169.404 581.646 169.404C580.986 169.404 580.434 169.674 579.99 170.214C579.546 170.742 579.324 171.378 579.324 172.122V177H577.668V168.18ZM591.384 177.288C590.088 177.288 589.02 176.844 588.18 175.956C587.34 175.068 586.92 173.946 586.92 172.59C586.92 171.246 587.328 170.13 588.144 169.242C588.96 168.342 590.004 167.892 591.276 167.892C592.584 167.892 593.622 168.318 594.39 169.17C595.17 170.01 595.56 171.192 595.56 172.716L595.542 172.896H588.612C588.636 173.76 588.924 174.456 589.476 174.984C590.028 175.512 590.688 175.776 591.456 175.776C592.512 175.776 593.34 175.248 593.94 174.192L595.416 174.912C595.02 175.656 594.468 176.238 593.76 176.658C593.064 177.078 592.272 177.288 591.384 177.288ZM588.738 171.528H593.796C593.748 170.916 593.496 170.412 593.04 170.016C592.596 169.608 591.996 169.404 591.24 169.404C590.616 169.404 590.076 169.596 589.62 169.98C589.176 170.364 588.882 170.88 588.738 171.528ZM598.73 177H597.074V168.18H598.658V169.62H598.73C598.898 169.152 599.24 168.756 599.756 168.432C600.284 168.096 600.8 167.928 601.304 167.928C601.784 167.928 602.192 168 602.528 168.144L602.024 169.746C601.82 169.662 601.496 169.62 601.052 169.62C600.428 169.62 599.882 169.872 599.414 170.376C598.958 170.88 598.73 171.468 598.73 172.14V177Z" fill="#94A3B8"/>
<path d="M176.104 94.188H184.996V135H176.104V94.188ZM191.996 108.21L194.96 103.707C194.01 103.289 193.25 102.643 192.68 101.769C192.11 100.857 191.825 99.85 191.825 98.748C191.825 97.228 192.357 95.936 193.421 94.872C194.485 93.808 195.777 93.276 197.297 93.276C198.817 93.276 200.109 93.808 201.173 94.872C202.237 95.936 202.769 97.228 202.769 98.748C202.769 99.432 202.655 100.04 202.427 100.572C202.237 101.104 201.914 101.693 201.458 102.339L195.815 110.718L191.996 108.21ZM206.976 107.07H214.956V110.604H215.526C216.438 109.198 217.597 108.115 219.003 107.355C220.447 106.557 222.138 106.158 224.076 106.158C226.204 106.158 227.971 106.671 229.377 107.697C230.783 108.685 231.771 109.844 232.341 111.174C233.177 109.844 234.374 108.685 235.932 107.697C237.49 106.671 239.447 106.158 241.803 106.158C243.475 106.158 244.938 106.443 246.192 107.013C247.446 107.545 248.472 108.305 249.27 109.293C250.106 110.281 250.733 111.459 251.151 112.827C251.569 114.195 251.778 115.696 251.778 117.33V135H243.228V118.983C243.228 117.539 242.886 116.38 242.202 115.506C241.556 114.594 240.587 114.138 239.295 114.138C237.433 114.138 236.027 114.898 235.077 116.418C234.127 117.9 233.652 119.895 233.652 122.403V135H225.102V118.983C225.102 117.539 224.741 116.38 224.019 115.506C223.335 114.594 222.252 114.138 220.77 114.138C219.022 114.138 217.711 114.898 216.837 116.418C215.963 117.9 215.526 119.895 215.526 122.403V135H206.976V107.07ZM513.65 94.188H523.91L539.186 135H529.382L526.247 125.88H511.313L508.178 135H498.374L513.65 94.188ZM523.397 117.786L520.433 109.236L519.065 104.22H518.495L517.127 109.236L514.163 117.786H523.397ZM543.076 94.188H551.626V104.904L551.056 110.604H551.626C552.5 109.236 553.659 108.153 555.103 107.355C556.547 106.557 558.181 106.158 560.005 106.158C563.539 106.158 566.18 107.222 567.928 109.35C569.676 111.478 570.55 114.48 570.55 118.356V135H562V119.325C562 117.805 561.639 116.57 560.917 115.62C560.195 114.632 559.074 114.138 557.554 114.138C555.616 114.138 554.134 114.879 553.108 116.361C552.12 117.843 551.626 119.781 551.626 122.175V135H543.076V94.188ZM593.177 132.492H592.607C591.695 133.48 590.65 134.297 589.472 134.943C588.332 135.589 586.85 135.912 585.026 135.912C583.62 135.912 582.29 135.684 581.036 135.228C579.82 134.772 578.737 134.126 577.787 133.29C576.875 132.454 576.153 131.447 575.621 130.269C575.089 129.091 574.823 127.78 574.823 126.336C574.823 124.93 575.108 123.657 575.678 122.517C576.248 121.339 577.027 120.332 578.015 119.496C579.003 118.66 580.162 118.014 581.492 117.558C582.86 117.102 584.342 116.874 585.938 116.874C587.648 116.874 589.054 116.988 590.156 117.216C591.296 117.444 592.303 117.71 593.177 118.014V117.273C593.177 116.057 592.664 115.031 591.638 114.195C590.65 113.321 589.301 112.884 587.591 112.884C585.121 112.884 582.993 113.891 581.207 115.905L575.393 111.801C576.989 109.901 578.832 108.495 580.922 107.583C583.05 106.633 585.387 106.158 587.933 106.158C592.493 106.158 595.932 107.184 598.25 109.236C600.568 111.25 601.727 114.328 601.727 118.47V135H593.177V132.492ZM593.177 123.999C592.303 123.657 591.429 123.391 590.555 123.201C589.719 123.011 588.845 122.916 587.933 122.916C586.413 122.916 585.273 123.239 584.513 123.885C583.753 124.493 583.373 125.291 583.373 126.279C583.373 127.267 583.734 128.065 584.456 128.673C585.178 129.243 586.128 129.528 587.306 129.528C588.256 129.528 589.092 129.376 589.814 129.072C590.574 128.73 591.201 128.293 591.695 127.761C592.189 127.229 592.55 126.64 592.778 125.994C593.044 125.31 593.177 124.645 593.177 123.999ZM607.646 107.07H615.626V110.604H616.196C617.108 109.198 618.267 108.115 619.673 107.355C621.117 106.557 622.808 106.158 624.746 106.158C626.874 106.158 628.641 106.671 630.047 107.697C631.453 108.685 632.441 109.844 633.011 111.174C633.847 109.844 635.044 108.685 636.602 107.697C638.16 106.671 640.117 106.158 642.473 106.158C644.145 106.158 645.608 106.443 646.862 107.013C648.116 107.545 649.142 108.305 649.94 109.293C650.776 110.281 651.403 111.459 651.821 112.827C652.239 114.195 652.448 115.696 652.448 117.33V135H643.898V118.983C643.898 117.539 643.556 116.38 642.872 115.506C642.226 114.594 641.257 114.138 639.965 114.138C638.103 114.138 636.697 114.898 635.747 116.418C634.797 117.9 634.322 119.895 634.322 122.403V135H625.772V118.983C625.772 117.539 625.411 116.38 624.689 115.506C624.005 114.594 622.922 114.138 621.44 114.138C619.692 114.138 618.381 114.898 617.507 116.418C616.633 117.9 616.196 119.895 616.196 122.403V135H607.646V107.07ZM685.597 128.217C684.229 130.611 682.424 132.492 680.182 133.86C677.978 135.228 675.299 135.912 672.145 135.912C669.979 135.912 667.965 135.551 666.103 134.829C664.279 134.069 662.683 133.024 661.315 131.694C659.947 130.364 658.883 128.806 658.123 127.02C657.363 125.196 656.983 123.201 656.983 121.035C656.983 119.021 657.363 117.121 658.123 115.335C658.883 113.511 659.928 111.934 661.258 110.604C662.626 109.236 664.203 108.153 665.989 107.355C667.813 106.557 669.789 106.158 671.917 106.158C674.235 106.158 676.268 106.538 678.016 107.298C679.802 108.058 681.284 109.103 682.462 110.433C683.64 111.725 684.533 113.264 685.141 115.05C685.749 116.798 686.053 118.679 686.053 120.693C686.053 120.997 686.034 121.301 685.996 121.605C685.996 121.909 685.977 122.175 685.939 122.403C685.901 122.669 685.882 122.916 685.882 123.144H665.305C665.723 124.968 666.578 126.298 667.87 127.134C669.162 127.97 670.606 128.388 672.202 128.388C673.798 128.388 675.109 128.046 676.135 127.362C677.199 126.678 678.035 125.804 678.643 124.74L685.597 128.217ZM678.016 117.33C677.94 116.874 677.75 116.38 677.446 115.848C677.18 115.316 676.781 114.841 676.249 114.423C675.755 113.967 675.128 113.606 674.368 113.34C673.646 113.036 672.829 112.884 671.917 112.884C670.587 112.884 669.352 113.264 668.212 114.024C667.072 114.784 666.236 115.886 665.704 117.33H678.016ZM711.662 131.922H711.092C710.446 133.024 709.439 133.974 708.071 134.772C706.741 135.532 705.05 135.912 702.998 135.912C701.212 135.912 699.502 135.551 697.868 134.829C696.234 134.107 694.79 133.1 693.536 131.808C692.32 130.478 691.351 128.901 690.629 127.077C689.907 125.253 689.546 123.239 689.546 121.035C689.546 118.831 689.907 116.817 690.629 114.993C691.351 113.169 692.32 111.611 693.536 110.319C694.79 108.989 696.234 107.963 697.868 107.241C699.502 106.519 701.212 106.158 702.998 106.158C705.05 106.158 706.741 106.557 708.071 107.355C709.439 108.115 710.446 109.046 711.092 110.148H711.662L711.092 106.158V94.188H719.642V135H711.662V131.922ZM704.879 127.932C705.791 127.932 706.646 127.78 707.444 127.476C708.28 127.134 709.002 126.678 709.61 126.108C710.256 125.5 710.75 124.778 711.092 123.942C711.472 123.068 711.662 122.099 711.662 121.035C711.662 119.971 711.472 119.021 711.092 118.185C710.75 117.349 710.256 116.627 709.61 116.019C709.002 115.411 708.28 114.955 707.444 114.651C706.646 114.309 705.791 114.138 704.879 114.138C703.967 114.138 703.093 114.309 702.257 114.651C701.459 114.955 700.737 115.411 700.091 116.019C699.483 116.627 698.989 117.349 698.609 118.185C698.267 119.021 698.096 119.971 698.096 121.035C698.096 122.099 698.267 123.068 698.609 123.942C698.989 124.778 699.483 125.5 700.091 126.108C700.737 126.678 701.459 127.134 702.257 127.476C703.093 127.78 703.967 127.932 704.879 127.932Z" fill="#CBD5E1"/>
<path d="M271.345 94.188H286.735C288.939 94.188 290.915 94.53 292.663 95.214C294.411 95.86 295.874 96.772 297.052 97.95C298.268 99.128 299.18 100.534 299.788 102.168C300.434 103.764 300.757 105.512 300.757 107.412C300.757 108.742 300.529 109.977 300.073 111.117C299.655 112.257 299.066 113.321 298.306 114.309C297.584 115.259 296.729 116.114 295.741 116.874C294.753 117.596 293.689 118.204 292.549 118.698V119.211L303.208 134.43V135H293.062L282.745 120.294H280.237V135H271.345V94.188ZM286.735 112.086C288.331 112.086 289.585 111.63 290.497 110.718C291.409 109.768 291.865 108.609 291.865 107.241C291.865 105.873 291.428 104.733 290.554 103.821C289.718 102.871 288.445 102.396 286.735 102.396H280.237V112.086H286.735ZM311.68 103.992C310.92 103.992 310.217 103.859 309.571 103.593C308.925 103.289 308.355 102.909 307.861 102.453C307.405 101.959 307.025 101.389 306.721 100.743C306.455 100.097 306.322 99.394 306.322 98.634C306.322 97.912 306.455 97.228 306.721 96.582C307.025 95.898 307.405 95.328 307.861 94.872C308.355 94.378 308.925 93.998 309.571 93.732C310.217 93.428 310.92 93.276 311.68 93.276C312.402 93.276 313.086 93.428 313.732 93.732C314.416 93.998 314.986 94.378 315.442 94.872C315.936 95.328 316.316 95.898 316.582 96.582C316.886 97.228 317.038 97.912 317.038 98.634C317.038 99.394 316.886 100.097 316.582 100.743C316.316 101.389 315.936 101.959 315.442 102.453C314.986 102.909 314.416 103.289 313.732 103.593C313.086 103.859 312.402 103.992 311.68 103.992ZM307.405 135V107.07H315.955V135H307.405ZM331.705 133.803L319.849 107.07H329.71L336.151 122.46H336.721L342.877 107.07H352.51L335.011 147.312H325.663L331.705 133.803ZM371.244 132.492H370.674C369.762 133.48 368.717 134.297 367.539 134.943C366.399 135.589 364.917 135.912 363.093 135.912C361.687 135.912 360.357 135.684 359.103 135.228C357.887 134.772 356.804 134.126 355.854 133.29C354.942 132.454 354.22 131.447 353.688 130.269C353.156 129.091 352.89 127.78 352.89 126.336C352.89 124.93 353.175 123.657 353.745 122.517C354.315 121.339 355.094 120.332 356.082 119.496C357.07 118.66 358.229 118.014 359.559 117.558C360.927 117.102 362.409 116.874 364.005 116.874C365.715 116.874 367.121 116.988 368.223 117.216C369.363 117.444 370.37 117.71 371.244 118.014V117.273C371.244 116.057 370.731 115.031 369.705 114.195C368.717 113.321 367.368 112.884 365.658 112.884C363.188 112.884 361.06 113.891 359.274 115.905L353.46 111.801C355.056 109.901 356.899 108.495 358.989 107.583C361.117 106.633 363.454 106.158 366 106.158C370.56 106.158 373.999 107.184 376.317 109.236C378.635 111.25 379.794 114.328 379.794 118.47V135H371.244V132.492ZM371.244 123.999C370.37 123.657 369.496 123.391 368.622 123.201C367.786 123.011 366.912 122.916 366 122.916C364.48 122.916 363.34 123.239 362.58 123.885C361.82 124.493 361.44 125.291 361.44 126.279C361.44 127.267 361.801 128.065 362.523 128.673C363.245 129.243 364.195 129.528 365.373 129.528C366.323 129.528 367.159 129.376 367.881 129.072C368.641 128.73 369.268 128.293 369.762 127.761C370.256 127.229 370.617 126.64 370.845 125.994C371.111 125.31 371.244 124.645 371.244 123.999ZM381.837 139.446C382.483 139.826 383.186 140.016 383.946 140.016C385.428 140.016 386.169 139.066 386.169 137.166V107.07H394.719V137.394C394.719 139.332 394.453 140.966 393.921 142.296C393.389 143.626 392.667 144.709 391.755 145.545C390.881 146.381 389.874 146.97 388.734 147.312C387.594 147.692 386.397 147.882 385.143 147.882C384.003 147.882 382.996 147.806 382.122 147.654C381.248 147.502 380.431 147.274 379.671 146.97L381.837 139.446ZM390.444 103.992C389.684 103.992 388.981 103.859 388.335 103.593C387.689 103.289 387.119 102.909 386.625 102.453C386.169 101.959 385.789 101.389 385.485 100.743C385.219 100.097 385.086 99.394 385.086 98.634C385.086 97.912 385.219 97.228 385.485 96.582C385.789 95.898 386.169 95.328 386.625 94.872C387.119 94.378 387.689 93.998 388.335 93.732C388.981 93.428 389.684 93.276 390.444 93.276C391.166 93.276 391.85 93.428 392.496 93.732C393.18 93.998 393.75 94.378 394.206 94.872C394.7 95.328 395.08 95.898 395.346 96.582C395.65 97.228 395.802 97.912 395.802 98.634C395.802 99.394 395.65 100.097 395.346 100.743C395.08 101.389 394.7 101.959 394.206 102.453C393.75 102.909 393.18 103.289 392.496 103.593C391.85 103.859 391.166 103.992 390.444 103.992ZM418.057 132.492H417.487C416.575 133.48 415.53 134.297 414.352 134.943C413.212 135.589 411.73 135.912 409.906 135.912C408.5 135.912 407.17 135.684 405.916 135.228C404.7 134.772 403.617 134.126 402.667 133.29C401.755 132.454 401.033 131.447 400.501 130.269C399.969 129.091 399.703 127.78 399.703 126.336C399.703 124.93 399.988 123.657 400.558 122.517C401.128 121.339 401.907 120.332 402.895 119.496C403.883 118.66 405.042 118.014 406.372 117.558C407.74 117.102 409.222 116.874 410.818 116.874C412.528 116.874 413.934 116.988 415.036 117.216C416.176 117.444 417.183 117.71 418.057 118.014V117.273C418.057 116.057 417.544 115.031 416.518 114.195C415.53 113.321 414.181 112.884 412.471 112.884C410.001 112.884 407.873 113.891 406.087 115.905L400.273 111.801C401.869 109.901 403.712 108.495 405.802 107.583C407.93 106.633 410.267 106.158 412.813 106.158C417.373 106.158 420.812 107.184 423.13 109.236C425.448 111.25 426.607 114.328 426.607 118.47V135H418.057V132.492ZM418.057 123.999C417.183 123.657 416.309 123.391 415.435 123.201C414.599 123.011 413.725 122.916 412.813 122.916C411.293 122.916 410.153 123.239 409.393 123.885C408.633 124.493 408.253 125.291 408.253 126.279C408.253 127.267 408.614 128.065 409.336 128.673C410.058 129.243 411.008 129.528 412.186 129.528C413.136 129.528 413.972 129.376 414.694 129.072C415.454 128.73 416.081 128.293 416.575 127.761C417.069 127.229 417.43 126.64 417.658 125.994C417.924 125.31 418.057 124.645 418.057 123.999ZM435.048 114.252H430.146V107.07H435.048V98.52H443.598V107.07H450.495V114.252H443.598V123.657C443.598 124.265 443.674 124.835 443.826 125.367C443.978 125.861 444.244 126.279 444.624 126.621C445.194 127.115 445.935 127.362 446.847 127.362C447.455 127.362 447.968 127.286 448.386 127.134C448.804 126.982 449.165 126.792 449.469 126.564L451.863 133.974C450.875 134.43 449.811 134.791 448.671 135.057C447.531 135.323 446.315 135.456 445.023 135.456C442.021 135.456 439.646 134.582 437.898 132.834C436.986 131.922 436.283 130.801 435.789 129.471C435.295 128.103 435.048 126.602 435.048 124.968V114.252ZM456.463 94.188H465.013V104.904L464.443 110.604H465.013C465.887 109.236 467.046 108.153 468.49 107.355C469.934 106.557 471.568 106.158 473.392 106.158C476.926 106.158 479.567 107.222 481.315 109.35C483.063 111.478 483.937 114.48 483.937 118.356V135H475.387V119.325C475.387 117.805 475.026 116.57 474.304 115.62C473.582 114.632 472.461 114.138 470.941 114.138C469.003 114.138 467.521 114.879 466.495 116.361C465.507 117.843 465.013 119.781 465.013 122.175V135H456.463V94.188Z" fill="#FFC700"/>
</g>
<defs>
<linearGradient id="paint0_linear_13_2" x1="448" y1="0" x2="448" y2="288" gradientUnits="userSpaceOnUse">
<stop stop-color="#0F172A"/>
<stop offset="1" stop-color="#0F172A" stop-opacity="0"/>
</linearGradient>
<clipPath id="clip0_13_2">
<rect width="896" height="288" fill="white"/>
</clipPath>
<clipPath id="clip1_13_2">
<rect width="896" height="288" fill="white"/>
</clipPath>
</defs>
</svg>
